<svg width="509" height="452" viewBox="0 0 509 452" fill="none" xmlns="http://www.w3.org/2000/svg">
<path d="M175 287H334L389 452H121L175 287Z" fill="url(#paint0_radial_4_78)"/>
<circle cx="254.5" cy="114.5" r="114.5" fill="url(#paint1_radial_4_78)"/>
<circle cx="305.5" cy="46.5" r="18.5" fill="url(#paint2_radial_4_78)"/>
<path d="M0 195C0 237.104 99.46 292 138.417 292H370.583C409.54 292 509 237.104 509 195H0Z" fill="url(#paint3_radial_4_78)"/>
<path d="M1.52588e-05 195C1.52588e-05 150.5 99.46 104 138.417 104H370.583C409.54 104 509 150.5 509 195H1.52588e-05Z" fill="url(#paint4_linear_4_78)"/>
<ellipse cx="467.848" cy="159.9" rx="23.19" ry="7.06372" transform="rotate(42.6165 467.848 159.9)" fill="url(#paint5_radial_4_78)"/>
<ellipse cx="419.268" cy="160.346" rx="23.7843" ry="12.3463" transform="rotate(33.1657 419.268 160.346)" fill="url(#paint6_radial_4_78)"/>
<ellipse cx="344.573" cy="161.153" rx="23.5" ry="16.244" transform="rotate(19.4869 344.573 161.153)" fill="url(#paint7_radial_4_78)"/>
<ellipse cx="255.5" cy="161.5" rx="23.5" ry="16.5" fill="url(#paint8_radial_4_78)"/>
<ellipse cx="165.606" cy="161.803" rx="23.7066" ry="15.9851" transform="rotate(-18.9009 165.606 161.803)" fill="url(#paint9_radial_4_78)"/>
<ellipse cx="91.3646" cy="162.458" rx="23.3346" ry="12.5536" transform="rotate(-34.0113 91.3646 162.458)" fill="url(#paint10_radial_4_78)"/>
<ellipse cx="41.5932" cy="162.177" rx="22.8991" ry="7.34927" transform="rotate(-43.915 41.5932 162.177)" fill="url(#paint11_radial_4_78)"/>
<defs>
<radialGradient id="paint0_radial_4_78" cx="0" cy="0" r="1" gradientUnits="userSpaceOnUse" gradientTransform="translate(255 292) rotate(90) scale(160 244.094)">
<stop offset="0.0879965" stop-color="#EACA27"/>
<stop offset="0.46066" stop-color="#F8DD39"/>
<stop offset="1" stop-color="#F8DD39" stop-opacity="0"/>
</radialGradient>
<radialGradient id="paint1_radial_4_78" cx="0" cy="0" r="1" gradientUnits="userSpaceOnUse" gradientTransform="translate(296 108.5) rotate(-146.849) scale(132.579)">
<stop stop-color="#61EBFB"/>
<stop offset="1" stop-color="#3BA9E3"/>
</radialGradient>
<radialGradient id="paint2_radial_4_78" cx="0" cy="0" r="1" gradientUnits="userSpaceOnUse" gradientTransform="translate(313.5 39) rotate(134.275) scale(27.933)">
<stop stop-color="#FEFFFF"/>
<stop offset="0.814137" stop-color="#53D2F2"/>
</radialGradient>
<radialGradient id="paint3_radial_4_78" cx="0" cy="0" r="1" gradientUnits="userSpaceOnUse" gradientTransform="translate(242 145.5) rotate(88.3397) scale(138.058 685.933)">
<stop offset="0.149875" stop-color="#D6D5D7"/>
<stop offset="0.619012" stop-color="#807885"/>
<stop offset="1" stop-color="#8B7E80"/>
</radialGradient>
<linearGradient id="paint4_linear_4_78" x1="25" y1="161.5" x2="442.5" y2="176" gradientUnits="userSpaceOnUse">
<stop stop-color="#706F70"/>
<stop offset="1" stop-color="#EAE9EB"/>
</linearGradient>
<radialGradient id="paint5_radial_4_78" cx="0" cy="0" r="1" gradientUnits="userSpaceOnUse" gradientTransform="translate(468.19 164.478) rotate(-87.6164) scale(9.8995 35.6934)">
<stop stop-color="#5F516A"/>
<stop offset="1" stop-color="#3A2E44"/>
</radialGradient>
<radialGradient id="paint6_radial_4_78" cx="0" cy="0" r="1" gradientTransform="matrix(1.40414 -17.5594 28.7848 2.44283 418.627 170.57)" gradientUnits="userSpaceOnUse">
<stop stop-color="#5F516A"/>
<stop offset="1" stop-color="#3A2E44"/>
</radialGradient>
<radialGradient id="paint7_radial_4_78" cx="0" cy="0" r="1" gradientUnits="userSpaceOnUse" gradientTransform="translate(333.082 161.874) rotate(-0.745591) scale(29.5677 21.6349)">
<stop stop-color="#5F516A"/>
<stop offset="1" stop-color="#3A2E44"/>
</radialGradient>
<radialGradient id="paint8_radial_4_78" cx="0" cy="0" r="1" gradientTransform="matrix(28 13.9219 -10.6205 22.7161 240.5 155.312)" gradientUnits="userSpaceOnUse">
<stop stop-color="#5F516A"/>
<stop offset="1" stop-color="#3A2E44"/>
</radialGradient>
<radialGradient id="paint9_radial_4_78" cx="0" cy="0" r="1" gradientTransform="matrix(29.4566 13.2218 -10.5134 22.9552 150.475 155.808)" gradientUnits="userSpaceOnUse">
<stop stop-color="#5F516A"/>
<stop offset="1" stop-color="#3A2E44"/>
</radialGradient>
<radialGradient id="paint10_radial_4_78" cx="0" cy="0" r="1" gradientUnits="userSpaceOnUse" gradientTransform="translate(80.6674 157.1) rotate(14.4382) scale(23.8799 19.836)">
<stop stop-color="#5F516A"/>
<stop offset="1" stop-color="#3A2E44"/>
</radialGradient>
<radialGradient id="paint11_radial_4_78" cx="0" cy="0" r="1" gradientUnits="userSpaceOnUse" gradientTransform="translate(41.2349 158.81) rotate(86.4255) scale(8.13941 25.9475)">
<stop stop-color="#5F516A"/>
<stop offset="1" stop-color="#3A2E44"/>
</radialGradient>
</defs>
</svg>
