<svg width="514" height="295" viewBox="0 0 514 295" fill="none" xmlns="http://www.w3.org/2000/svg">
<mask id="mask0_6_2" style="mask-type:alpha" maskUnits="userSpaceOnUse" x="142" y="0" width="230" height="229">
<circle cx="257" cy="114.5" r="112" stroke="#9F9F9F" stroke-width="5"/>
</mask>
<g mask="url(#mask0_6_2)">
<rect x="50.5" y="-64" width="420" height="168" fill="#959595"/>
</g>
<path d="M2.5 195C2.5 237.104 101.96 292 140.917 292H373.083C412.04 292 511.5 237.104 511.5 195H2.5Z" stroke="#959595" stroke-width="5"/>
<path d="M2.50002 195C2.50002 150.5 101.96 104 140.917 104H373.083C412.04 104 511.5 150.5 511.5 195H2.50002Z" stroke="#959595" stroke-width="5"/>
<path d="M474.116 155.806C478.75 160.07 482.375 164.465 484.504 168.087C485.573 169.906 486.22 171.455 486.465 172.646C486.719 173.879 486.485 174.395 486.31 174.586C486.135 174.776 485.641 175.052 484.39 174.901C483.183 174.756 481.585 174.241 479.683 173.326C475.896 171.506 471.216 168.259 466.581 163.995C461.946 159.731 458.321 155.336 456.192 151.713C455.123 149.894 454.477 148.344 454.232 147.153C453.978 145.92 454.212 145.404 454.387 145.214C454.562 145.023 455.057 144.748 456.307 144.898C457.514 145.043 459.111 145.559 461.013 146.474C464.8 148.294 469.481 151.541 474.116 155.806Z" stroke="#959595" stroke-width="3"/>
<path d="M427.702 151.267C433.04 154.756 437.075 159 439.315 162.975C441.597 167.024 441.825 170.391 440.422 172.538C439.019 174.684 435.844 175.826 431.22 175.362C426.68 174.907 421.173 172.914 415.834 169.426C410.496 165.937 406.461 161.693 404.221 157.717C401.939 153.669 401.711 150.303 403.114 148.156C404.517 146.009 407.692 144.866 412.316 145.33C416.856 145.786 422.363 147.778 427.702 151.267Z" stroke="#959595" stroke-width="3"/>
<path d="M351.991 147.253C357.858 149.329 362.525 152.833 365.354 156.746C368.186 160.665 369.098 164.86 367.812 168.492C366.527 172.124 363.181 174.811 358.513 176.076C353.853 177.34 348.021 177.129 342.154 175.053C336.287 172.977 331.621 169.472 328.792 165.559C325.959 161.64 325.048 157.446 326.333 153.814C327.618 150.182 330.965 147.494 335.632 146.229C340.292 144.966 346.125 145.178 351.991 147.253Z" stroke="#959595" stroke-width="3"/>
<path d="M258 146.5C264.218 146.5 269.784 148.272 273.755 151.061C277.73 153.852 280 157.565 280 161.5C280 165.435 277.73 169.148 273.755 171.939C269.784 174.728 264.218 176.5 258 176.5C251.782 176.5 246.216 174.728 242.245 171.939C238.27 169.148 236 165.435 236 161.5C236 157.565 238.27 153.852 242.245 151.061C246.216 148.272 251.782 146.5 258 146.5Z" stroke="#959595" stroke-width="3"/>
<path d="M163.415 148.098C169.364 146.062 175.243 145.868 179.914 147.127C184.594 148.389 187.896 151.048 189.116 154.609C190.335 158.171 189.356 162.295 186.431 166.162C183.512 170.019 178.748 173.47 172.799 175.507C166.85 177.544 160.97 177.738 156.299 176.478C151.619 175.216 148.317 172.558 147.097 168.996C145.878 165.435 146.857 161.31 149.782 157.444C152.701 153.586 157.466 150.135 163.415 148.098Z" stroke="#959595" stroke-width="3"/>
<path d="M87.682 153.296C92.8588 149.802 98.2476 147.813 102.727 147.363C107.275 146.907 110.482 148.049 111.964 150.245C113.446 152.442 113.305 155.843 111.179 159.89C109.086 163.875 105.225 168.128 100.048 171.621C94.871 175.114 89.4816 177.104 85.0025 177.554C80.4542 178.01 77.2475 176.868 75.7654 174.672C74.2833 172.475 74.4244 169.074 76.5499 165.027C78.6431 161.042 82.5051 156.789 87.682 153.296Z" stroke="#959595" stroke-width="3"/>
<path d="M40.0364 157.963C44.5111 153.655 49.0804 150.38 52.8137 148.549C54.6883 147.63 56.2735 147.114 57.4841 146.971C58.7244 146.825 59.2773 147.095 59.5084 147.335C59.7395 147.575 59.9875 148.138 59.7945 149.371C59.606 150.575 59.0309 152.14 58.0413 153.979C56.0707 157.64 52.6248 162.082 48.1502 166.39C43.6755 170.698 39.1062 173.974 35.3729 175.805C33.4983 176.724 31.9124 177.239 30.7018 177.382C29.4622 177.528 28.9094 177.259 28.6782 177.019C28.4471 176.779 28.1984 176.216 28.3914 174.983C28.5799 173.778 29.1558 172.214 30.1453 170.375C32.116 166.714 35.5617 162.271 40.0364 157.963Z" stroke="#959595" stroke-width="3"/>
</svg>
